{
  "accessors": [
    {
      "bufferView": 2,
      "componentType": 5126,
      "count": 65532,
      "max": [
        1.1659849882125854,
        0.62497299909591675,
        1.0636060237884521
      ],
      "min": [
        -1.3327649831771851,
        -0.42663800716400146,
        -1.0634880065917969
      ],
      "type": "VEC3"
    },
    {
      "bufferView": 2,
      "byteOffset": 786384,
      "componentType": 5126,
      "count": 65532,
      "max": [
        0.98197001218795776,
        0.99999946355819702,
        0.98727065324783325
      ],
      "min": [
        -0.97738474607467651,
        -0.99999845027923584,
        -0.99997425079345703
      ],
      "type": "VEC3"
    },
    {
      "bufferView": 3,
      "componentType": 5126,
      "count": 65532,
      "max": [
        0.99995023012161255,
        0.99999213218688965,
        0.9231569766998291,
        1
      ],
      "min": [
        -0.98629015684127808,
        -0.99838602542877197,
        -0.99994665384292603,
        -1
      ],
      "type": "VEC4"
    },
    {
      "bufferView": 1,
      "componentType": 5126,
      "count": 65532,
      "max": [
        0.94904202222824097,
        0.99076199531555176
      ],
      "min": [
        0.016140999272465706,
        0.068603001534938812
      ],
      "type": "VEC2"
    },
    {
      "bufferView": 0,
      "componentType": 5125,
      "count": 360219,
      "max": [
        65531
      ],
      "min": [
        0
      ],
      "type": "SCALAR"
    },
    {
      "bufferView": 2,
      "byteOffset": 1572768,
      "componentType": 5126,
      "count": 65532,
      "max": [
        1.4053000211715698,
        0.6249619722366333,
        0.86669498682022095
      ],
      "min": [
        -0.50327402353286743,
        -0.60445398092269897,
        -1.0675469636917114
      ],
      "type": "VEC3"
    },
    {
      "bufferView": 2,
      "byteOffset": 2359152,
      "componentType": 5126,
      "count": 65532,
      "max": [
        0.99999809265136719,
        0.99999946355819702,
        0.99924463033676147
      ],
      "min": [
        -0.98502850532531738,
        -1,
        -0.99996078014373779
      ],
      "type": "VEC3"
    },
    {
      "bufferView": 3,
      "byteOffset": 1048512,
      "componentType": 5126,
      "count": 65532,
      "max": [
        0.99998891353607178,
        0.99997133016586304,
        0.99762284755706787,
        1
      ],
      "min": [
        -0.99991637468338013,
        -0.99968200922012329,
        -0.9999997615814209,
        -1
      ],
      "type": "VEC4"
    },
    {
      "bufferView": 1,
      "byteOffset": 524256,
      "componentType": 5126,
      "count": 65532,
      "max": [
        0.95910602807998657,
        0.99963599443435669
      ],
      "min": [
        0.00046300000394694507,
        0
      ],
      "type": "VEC2"
    },
    {
      "bufferView": 0,
      "byteOffset": 1440876,
      "componentType": 5125,
      "count": 344628,
      "max": [
        65531
      ],
      "min": [
        0
      ],
      "type": "SCALAR"
    },
    {
      "bufferView": 2,
      "byteOffset": 3145536,
      "componentType": 5126,
      "count": 65532,
      "max": [
        1.4062180519104004,
        0.62391102313995361,
        0.83276498317718506
      ],
      "min": [
        -0.38730800151824951,
        -0.62497502565383911,
        -1.0665580034255981
      ],
      "type": "VEC3"
    },
    {
      "bufferView": 2,
      "byteOffset": 3931920,
      "componentType": 5126,
      "count": 65532,
      "max": [
        0.99996846914291382,
        0.99999934434890747,
        0.99993866682052612
      ],
      "min": [
        -0.99940437078475952,
        -1,
        -0.99989074468612671
      ],
      "type": "VEC3"
    },
    {
      "bufferView": 3,
      "byteOffset": 2097024,
      "componentType": 5126,
      "count": 65532,
      "max": [
        0.99999988079071045,
        0.99916011095046997,
        0.99968397617340088,
        1
      ],
      "min": [
        -0.99990224838256836,
        -0.99970042705535889,
        -0.9999995231628418,
        -1
      ],
      "type": "VEC4"
    },
    {
      "bufferView": 1,
      "byteOffset": 1048512,
      "componentType": 5126,
      "count": 65532,
      "max": [
        0.95788198709487915,
        0.99908298254013062
      ],
      "min": [
        0.015296000055968761,
        7.0000000960135367e-06
      ],
      "type": "VEC2"
    },
    {
      "bufferView": 0,
      "byteOffset": 2819388,
      "componentType": 5125,
      "count": 333792,
      "max": [
        65531
      ],
      "min": [
        0
      ],
      "type": "SCALAR"
    },
    {
      "bufferView": 2,
      "byteOffset": 4718304,
      "componentType": 5126,
      "count": 65532,
      "max": [
        1.4036380052566528,
        0.62495201826095581,
        1.0599960088729858
      ],
      "min": [
        -0.48413598537445068,
        -0.60045599937438965,
        -1.0363689661026001
      ],
      "type": "VEC3"
    },
    {
      "bufferView": 2,
      "byteOffset": 5504688,
      "componentType": 5126,
      "count": 65532,
      "max": [
        0.99998337030410767,
        0.99999934434890747,
        0.9999234676361084
      ],
      "min": [
        -0.99906575679779053,
        -0.99999988079071045,
        -0.9999733567237854
      ],
      "type": "VEC3"
    },
    {
      "bufferView": 3,
      "byteOffset": 3145536,
      "componentType": 5126,
      "count": 65532,
      "max": [
        0.99998694658279419,
        0.99081498384475708,
        0.98917686939239502,
        1
      ],
      "min": [
        -0.99998211860656738,
        -0.99970823526382446,
        -0.99998092651367188,
        -1
      ],
      "type": "VEC4"
    },
    {
      "bufferView": 1,
      "byteOffset": 1572768,
      "componentType": 5126,
      "count": 65532,
      "max": [
        0.95523500442504883,
        0.95165002346038818
      ],
      "min": [
        0.0036730000283569098,
        0.0023419999051839113
      ],
      "type": "VEC2"
    },
    {
      "bufferView": 0,
      "byteOffset": 4154556,
      "componentType": 5125,
      "count": 318195,
      "max": [
        65531
      ],
      "min": [
        0
      ],
      "type": "SCALAR"
    },
    {
      "bufferView": 2,
      "byteOffset": 6291072,
      "componentType": 5126,
      "count": 65532,
      "max": [
        0.66912901401519775,
        0.6249539852142334,
        1.0677560567855835
      ],
      "min": [
        -1.4022760391235352,
        -0.59235197305679321,
        -1.0677560567855835
      ],
      "type": "VEC3"
    },
    {
      "bufferView": 2,
      "byteOffset": 7077456,
      "componentType": 5126,
      "count": 65532,
      "max": [
        0.99921721220016479,
        0.99999898672103882,
        0.99998974800109863
      ],
      "min": [
        -0.99992066621780396,
        -1,
        -0.99999374151229858
      ],
      "type": "VEC3"
    },
    {
      "bufferView": 3,
      "byteOffset": 4194048,
      "componentType": 5126,
      "count": 65532,
      "max": [
        0.99999719858169556,
        0.99970412254333496,
        0.99982184171676636,
        1
      ],
      "min": [
        -0.9999995231628418,
        -0.99974894523620605,
        -0.99999862909317017,
        -1
      ],
      "type": "VEC4"
    },
    {
      "bufferView": 1,
      "byteOffset": 2097024,
      "componentType": 5126,
      "count": 65532,
      "max": [
        0.95460599660873413,
        0.99981802701950073
      ],
      "min": [
        0.0021269998978823423,
        0.00010099999781232327
      ],
      "type": "VEC2"
    },
    {
      "bufferView": 0,
      "byteOffset": 5427336,
      "componentType": 5125,
      "count": 313962,
      "max": [
        65531
      ],
      "min": [
        0
      ],
      "type": "SCALAR"
    },
    {
      "bufferView": 2,
      "byteOffset": 7863840,
      "componentType": 5126,
      "count": 65532,
      "max": [
        0.20671199262142181,
        0.62492400407791138,
        0.49397900700569153
      ],
      "min": [
        -1.4062169790267944,
        -0.46321898698806763,
        -1.0670009851455688
      ],
      "type": "VEC3"
    },
    {
      "bufferView": 2,
      "byteOffset": 8650224,
      "componentType": 5126,
      "count": 65532,
      "max": [
        0.99900364875793457,
        0.99999910593032837,
        0.99983298778533936
      ],
      "min": [
        -0.99999678134918213,
        -1,
        -0.99999397993087769
      ],
      "type": "VEC3"
    },
    {
      "bufferView": 3,
      "byteOffset": 5242560,
      "componentType": 5126,
      "count": 65532,
      "max": [
        0.99998724460601807,
        0.99998050928115845,
        0.99995207786560059,
        1
      ],
      "min": [
        -0.9999268651008606,
        -0.99993002414703369,
        -0.99999904632568359,
        -1
      ],
      "type": "VEC4"
    },
    {
      "bufferView": 1,
      "byteOffset": 2621280,
      "componentType": 5126,
      "count": 65532,
      "max": [
        0.94670802354812622,
        0.85679197311401367
      ],
      "min": [
        0.0017180000431835651,
        5.2999999752501026e-05
      ],
      "type": "VEC2"
    },
    {
      "bufferView": 0,
      "byteOffset": 6683184,
      "componentType": 5125,
      "count": 337065,
      "max": [
        65531
      ],
      "min": [
        0
      ],
      "type": "SCALAR"
    },
    {
      "bufferView": 2,
      "byteOffset": 9436608,
      "componentType": 5126,
      "count": 65532,
      "max": [
        0.22175300121307373,
        0.62314802408218384,
        1.067533016204834
      ],
      "min": [
        -1.4042890071868896,
        -0.55245798826217651,
        -0.31894201040267944
      ],
      "type": "VEC3"
    },
    {
      "bufferView": 2,
      "byteOffset": 10222992,
      "componentType": 5126,
      "count": 65532,
      "max": [
        0.99814862012863159,
        0.99999934434890747,
        0.99998146295547485
      ],
      "min": [
        -0.99998646974563599,
        -0.99999988079071045,
        -0.99981445074081421
      ],
      "type": "VEC3"
    },
    {
      "bufferView": 3,
      "byteOffset": 6291072,
      "componentType": 5126,
      "count": 65532,
      "max": [
        0.9999995231628418,
        0.99240744113922119,
        0.99995207786560059,
        1
      ],
      "min": [
        -0.99999505281448364,
        -0.99999690055847168,
        -0.99996548891067505,
        -1
      ],
      "type": "VEC4"
    },
    {
      "bufferView": 1,
      "byteOffset": 3145536,
      "componentType": 5126,
      "count": 65532,
      "max": [
        0.95135098695755005,
        0.98692101240158081
      ],
      "min": [
        0.0048239999450743198,
        0
      ],
      "type": "VEC2"
    },
    {
      "bufferView": 0,
      "byteOffset": 8031444,
      "componentType": 5125,
      "count": 315048,
      "max": [
        65531
      ],
      "min": [
        0
      ],
      "type": "SCALAR"
    },
    {
      "bufferView": 2,
      "byteOffset": 11009376,
      "componentType": 5126,
      "count": 65532,
      "max": [
        1.3991260528564453,
        0.62497299909591675,
        1.0675630569458008
      ],
      "min": [
        -1.4006830453872681,
        -0.50451499223709106,
        -1.0657709836959839
      ],
      "type": "VEC3"
    },
    {
      "bufferView": 2,
      "byteOffset": 11795760,
      "componentType": 5126,
      "count": 65532,
      "max": [
        0.99949550628662109,
        0.99999946355819702,
        0.99998712539672852
      ],
      "min": [
        -0.99983322620391846,
        -0.99999910593032837,
        -0.99954134225845337
      ],
      "type": "VEC3"
    },
    {
      "bufferView": 3,
      "byteOffset": 7339584,
      "componentType": 5126,
      "count": 65532,
      "max": [
        0.99998116493225098,
        0.99920165538787842,
        0.99989885091781616,
        1
      ],
      "min": [
        -0.9999995231628418,
        -0.99999690055847168,
        -0.99999302625656128,
        -1
      ],
      "type": "VEC4"
    },
    {
      "bufferView": 1,
      "byteOffset": 3669792,
      "componentType": 5126,
      "count": 65532,
      "max": [
        0.9502829909324646,
        0.99975800514221191
      ],
      "min": [
        0.0016969999996945262,
        0.0057390001602470875
      ],
      "type": "VEC2"
    },
    {
      "bufferView": 0,
      "byteOffset": 9291636,
      "componentType": 5125,
      "count": 309966,
      "max": [
        65531
      ],
      "min": [
        0
      ],
      "type": "SCALAR"
    },
    {
      "bufferView": 2,
      "byteOffset": 12582144,
      "componentType": 5126,
      "count": 15504,
      "max": [
        1.3992300033569336,
        0.62497299909591675,
        1.0636060237884521
      ],
      "min": [
        -1.4006830453872681,
        0.61798697710037231,
        -1.0654670000076294
      ],
      "type": "VEC3"
    },
    {
      "bufferView": 2,
      "byteOffset": 12768192,
      "componentType": 5126,
      "count": 15504,
      "max": [
        0.99906635284423828,
        0.99999934434890747,
        0.98623991012573242
      ],
      "min": [
        -0.98666936159133911,
        -0.44588986039161682,
        -0.99396848678588867
      ],
      "type": "VEC3"
    },
    {
      "bufferView": 3,
      "byteOffset": 8388096,
      "componentType": 5126,
      "count": 15504,
      "max": [
        0.99991536140441895,
        0.9884609580039978,
        0.99590969085693359,
        1
      ],
      "min": [
        -0.9130215048789978,
        -0.98229777812957764,
        -0.99994492530822754,
        -1
      ],
      "type": "VEC4"
    },
    {
      "bufferView": 1,
      "byteOffset": 4194048,
      "componentType": 5126,
      "count": 15504,
      "max": [
        0.94991201162338257,
        0.98219698667526245
      ],
      "min": [
        0.00093400001060217619,
        0.08185499906539917
      ],
      "type": "VEC2"
    },
    {
      "bufferView": 0,
      "byteOffset": 10531500,
      "componentType": 5125,
      "count": 38907,
      "max": [
        15503
      ],
      "min": [
        0
      ],
      "type": "SCALAR"
    }
  ],
  "asset": {
    "extras": {
      "author": "Spogna (https://sketchfab.com/spogna)",
      "license": "CC-BY-NC-4.0 (http://creativecommons.org/licenses/by-nc/4.0/)",
      "source": "https://sketchfab.com/3d-models/naked-mole-rat-rawscan-be948955f65547fca0f2cfd954b91b34",
      "title": "Naked Mole Rat  .::RAWscan::."
    },
    "generator": "Sketchfab-6.36.0",
    "version": "2.0"
  },
  "bufferViews": [
    {
      "buffer": 0,
      "byteLength": 10687128,
      "byteOffset": 0,
      "name": "floatBufferViews",
      "target": 34963
    },
    {
      "buffer": 0,
      "byteLength": 4318080,
      "byteOffset": 10687128,
      "byteStride": 8,
      "name": "floatBufferViews",
      "target": 34962
    },
    {
      "buffer": 0,
      "byteLength": 12954240,
      "byteOffset": 15005208,
      "byteStride": 12,
      "name": "floatBufferViews",
      "target": 34962
    },
    {
      "buffer": 0,
      "byteLength": 8636160,
      "byteOffset": 27959448,
      "byteStride": 16,
      "name": "floatBufferViews",
      "target": 34962
    }
  ],
  "buffers": [
    {
      "byteLength": 36595608,
      "uri": "scene.bin"
    }
  ],
  "images": [
    {
      "uri": "textures/material_0_baseColor.jpeg"
    },
    {
      "uri": "textures/material_0_metallicRoughness.png"
    }
  ],
  "materials": [
    {
      "doubleSided": true,
      "name": "material_0",
      "occlusionTexture": {
        "index": 1,
        "strength": 1,
        "texCoord": 0
      },
      "pbrMetallicRoughness": {
        "baseColorFactor": [
          1,
          1,
          1,
          1
        ],
        "baseColorTexture": {
          "index": 0,
          "texCoord": 0
        },
        "metallicFactor": 0,
        "metallicRoughnessTexture": {
          "index": 1,
          "texCoord": 0
        },
        "roughnessFactor": 1
      }
    }
  ],
  "meshes": [
    {
      "primitives": [
        {
          "attributes": {
            "NORMAL": 1,
            "POSITION": 0,
            "TANGENT": 2,
            "TEXCOORD_0": 3
          },
          "indices": 4,
          "material": 0,
          "mode": 4
        }
      ]
    },
    {
      "primitives": [
        {
          "attributes": {
            "NORMAL": 6,
            "POSITION": 5,
            "TANGENT": 7,
            "TEXCOORD_0": 8
          },
          "indices": 9,
          "material": 0,
          "mode": 4
        }
      ]
    },
    {
      "primitives": [
        {
          "attributes": {
            "NORMAL": 11,
            "POSITION": 10,
            "TANGENT": 12,
            "TEXCOORD_0": 13
          },
          "indices": 14,
          "material": 0,
          "mode": 4
        }
      ]
    },
    {
      "primitives": [
        {
          "attributes": {
            "NORMAL": 16,
            "POSITION": 15,
            "TANGENT": 17,
            "TEXCOORD_0": 18
          },
          "indices": 19,
          "material": 0,
          "mode": 4
        }
      ]
    },
    {
      "primitives": [
        {
          "attributes": {
            "NORMAL": 21,
            "POSITION": 20,
            "TANGENT": 22,
            "TEXCOORD_0": 23
          },
          "indices": 24,
          "material": 0,
          "mode": 4
        }
      ]
    },
    {
      "primitives": [
        {
          "attributes": {
            "NORMAL": 26,
            "POSITION": 25,
            "TANGENT": 27,
            "TEXCOORD_0": 28
          },
          "indices": 29,
          "material": 0,
          "mode": 4
        }
      ]
    },
    {
      "primitives": [
        {
          "attributes": {
            "NORMAL": 31,
            "POSITION": 30,
            "TANGENT": 32,
            "TEXCOORD_0": 33
          },
          "indices": 34,
          "material": 0,
          "mode": 4
        }
      ]
    },
    {
      "primitives": [
        {
          "attributes": {
            "NORMAL": 36,
            "POSITION": 35,
            "TANGENT": 37,
            "TEXCOORD_0": 38
          },
          "indices": 39,
          "material": 0,
          "mode": 4
        }
      ]
    },
    {
      "primitives": [
        {
          "attributes": {
            "NORMAL": 41,
            "POSITION": 40,
            "TANGENT": 42,
            "TEXCOORD_0": 43
          },
          "indices": 44,
          "material": 0,
          "mode": 4
        }
      ]
    }
  ],
  "nodes": [
    {
      "children": [
        1
      ],
      "name": "RootNode (gltf orientation matrix)",
      "rotation": [
        -0.70710678118654746,
        -0,
        -0,
        0.70710678118654757
      ]
    },
    {
      "children": [
        2
      ],
      "matrix": [
        1,
        0,
        0,
        0,
        0,
        2.2204460492503131e-16,
        -1,
        0,
        0,
        1,
        2.2204460492503131e-16,
        0,
        0,
        3.6358833312988281e-06,
        -6.2584877014160156e-06,
        1
      ],
      "name": "RootNode (model correction matrix)"
    },
    {
      "children": [
        3,
        4,
        5,
        6,
        7,
        8,
        9,
        10,
        11
      ],
      "name": "rat.obj.cleaner.materialmerger.gles"
    },
    {
      "mesh": 0,
      "name": ""
    },
    {
      "mesh": 1,
      "name": ""
    },
    {
      "mesh": 2,
      "name": ""
    },
    {
      "mesh": 3,
      "name": ""
    },
    {
      "mesh": 4,
      "name": ""
    },
    {
      "mesh": 5,
      "name": ""
    },
    {
      "mesh": 6,
      "name": ""
    },
    {
      "mesh": 7,
      "name": ""
    },
    {
      "mesh": 8,
      "name": ""
    }
  ],
  "samplers": [
    {
      "magFilter": 9729,
      "minFilter": 9987,
      "wrapS": 10497,
      "wrapT": 10497
    }
  ],
  "scene": 0,
  "scenes": [
    {
      "name": "OSG_Scene",
      "nodes": [
        0
      ]
    }
  ],
  "textures": [
    {
      "sampler": 0,
      "source": 0
    },
    {
      "sampler": 0,
      "source": 1
    }
  ]
}

